<?xml version="1.0" standalone="no"?>
<!DOCTYPE svg PUBLIC "-//W3C//DTD SVG 20010904//EN"
 "http://www.w3.org/TR/2001/REC-SVG-20010904/DTD/svg10.dtd">
<svg version="1.0" xmlns="http://www.w3.org/2000/svg"
 width="512.000000pt" height="512.000000pt" viewBox="0 0 512.000000 512.000000"
 preserveAspectRatio="xMidYMid meet">
<metadata>
Created by potrace 1.11, written by Peter Selinger 2001-2013
</metadata>
<g transform="translate(0.000000,512.000000) scale(0.100000,-0.100000)"
fill="#000000" stroke="none">
<path d="M1355 4769 c-22 -4 -58 -10 -79 -13 -22 -4 -73 -15 -115 -26 -508
-131 -921 -548 -1060 -1070 -19 -74 -22 -89 -40 -220 -9 -70 -7 -296 4 -370
37 -249 108 -467 241 -733 24 -48 44 -89 44 -90 0 -1 -48 -2 -107 -1 -60 0
-121 -4 -138 -9 -59 -19 -105 -82 -105 -144 0 -46 37 -107 79 -131 36 -21 51
-22 252 -22 l214 0 65 -88 c443 -600 1098 -1152 1734 -1464 133 -65 145 -64
303 18 292 151 615 365 853 563 30 25 68 57 84 71 219 182 617 599 635 664 28
106 -57 206 -165 193 -52 -5 -82 -29 -170 -132 -66 -78 -344 -359 -415 -420
-316 -273 -576 -458 -856 -611 -140 -77 -134 -75 -168 -54 -16 10 -55 30 -85
46 -129 65 -439 267 -566 369 -28 22 -66 51 -84 65 -45 34 -91 71 -116 95 -12
11 -45 40 -75 64 -92 76 -390 380 -491 501 l-96 115 221 5 c174 4 227 8 245
20 20 13 168 226 252 364 l23 39 210 -419 c115 -230 219 -430 231 -442 65 -72
178 -68 235 9 23 30 34 70 262 936 63 238 117 429 121 425 3 -4 49 -104 101
-222 53 -118 107 -229 121 -246 49 -61 161 -67 217 -10 14 13 80 110 148 215
67 105 124 191 126 191 1 0 26 -37 56 -82 72 -113 115 -166 149 -183 25 -13
125 -15 691 -15 653 0 662 0 699 21 50 28 74 72 75 136 0 37 -6 59 -21 80 -42
55 -82 69 -220 72 l-31 1 14 53 c59 227 62 508 8 742 -101 434 -410 819 -810
1009 -204 98 -390 140 -620 140 -88 1 -182 -2 -210 -6 -251 -37 -461 -121
-662 -265 l-87 -61 -55 42 c-155 117 -361 216 -525 252 -12 3 -32 8 -46 11
-129 29 -391 40 -495 22z"/>
</g>
</svg>
